<?xml version="1.0" encoding="utf-8"?>
<!-- Generator: Adobe Illustrator 16.0.0, SVG Export Plug-In . SVG Version: 6.00 Build 0)  -->
<!DOCTYPE svg PUBLIC "-//W3C//DTD SVG 1.1//EN" "http://www.w3.org/Graphics/SVG/1.1/DTD/svg11.dtd">
<svg version="1.1" id="Layer_1" xmlns="http://www.w3.org/2000/svg" xmlns:xlink="http://www.w3.org/1999/xlink" x="0px"
	y="0px" width="473.093px" height="135.542px" viewBox="0 0 473.093 135.542"
	enable-background="new 0 0 473.093 135.542" xml:space="preserve">
	<g>
		<path fill-rule="evenodd" clip-rule="evenodd" fill="#FFFFFF"
			d="M140.818,36.473l-57.76,32.494l-0.015,42.272l49.34-28.709
		l-0.017,5.604l-49.271,28.801l-0.013,18.576l57.688-32.573l0.048-43.771L99.194,83.163l0.006-5.324l41.614-24.283L140.818,36.473
		L140.818,36.473z M161.27,91.377l-16.304,9.195l-0.024-71.88l-63.82,36.969L16.336,28.258l0.023,72.351L0.055,91.413L0.027,9.508
		L0,0l81,46.765l80.232-46.214l0.007,9.385L161.27,91.377L161.27,91.377z M37.026,45.827l-16.195-9.275l-0.011,66.571l16.205,9.141
		l0.022-24.892l25.33,14.355l-0.005,24.738l15.928,9.076l0.011-66.433l-15.935-8.987l-0.04,23.037L37.042,68.716L37.026,45.827z" />
		<path fill-rule="evenodd" clip-rule="evenodd" fill="#FFFFFF" d="M204.868,46.097v5.159v4.03l-12.5,6.555v-2.364v-8.221v-5.159
		v-8.758h-11.1v8.758v5.159v8.221v3.654v1.988v5.643v0.322v3.063v3.814v2.042h0.332l-0.332,0.269v2.149v8.651h11.1V82.42
		c0-3.707,0-5.439,0-9.146l12.034-6.179l0.465-0.376v0.376c0,5.767,0,9.558,0,15.326v8.651h11.033V82.42v-4.46v-3.814v-9.027V63.13
		v-3.654v-3.654v-4.567v-4.943v-0.215v-8.758h-11.033V46.097L204.868,46.097z M232.318,37.339h-11.1v4.46v4.46v2.364v2.794v1.236
		v6.716v0.43l5.982,3.6l5.118,3.063l6.647,4.03v3.493v4.675v4.244h-6.647v-4.244v-4.675h-11.1v4.675v4.244v8.168h11.1h6.647h11.1
		v-8.168v-4.244v-1.505v-3.17v-7.953l-4.32-2.633l-6.713-4.03h-0.066l-6.647-4.083v-2.633v-1.236v-5.158h6.647v5.158v1.236h11.1
		v-1.236v-5.158v-4.46v-4.46h-11.1H232.318L232.318,37.339z M304.865,37.446l-3.257,9.081l-1.729,4.729l-2.991,8.489l-3.921,10.746
		l-3.922-10.746l-2.991-8.489l-1.729-4.729l-3.256-9.081l-0.067-0.107h-11.033v9.188v4.729v8.489v13.434v8.919v8.974h11.101v-8.974
		v-8.919V61.411l4.187,11.768l0.798,2.041l2.46,6.878h0.266h4.188h4.188h0.266l2.459-6.878l0.798-2.041l4.188-11.768v11.768v8.919
		v8.974h11.1v-8.974v-8.919V59.745v-8.489v-4.729v-9.188h-11.033L304.865,37.446L304.865,37.446z M332.382,51.256h-11.101v8.221
		h11.101h5.782v3.6v0.054h-0.066l-3.124,1.988l-2.592,1.72l-11.101,7.254v3.868v4.46v0.968v7.684h11.101h5.782h11.034V82.42v-4.46
		v-3.868v-8.974V63.13v-3.654v-8.221h-11.034H332.382L332.382,51.256z M338.165,74.092v3.868v4.46h-5.782v-4.46v-1.826l3.058-2.042
		l2.725-1.72V74.092L338.165,74.092z M365.549,52.008h-11.033v1.182v3.922v2.794v4.029v4.299l10.369,6.286h0.664v0.376l6.713,4.084
		l0.332,0.215h-0.332v4.245h-6.713v-3.171l-1.861-1.074h-9.172v4.245v1.343v6.824h11.033h6.713h11.034v-6.018v-2.149v-4.245v-4.675
		v-0.054l-11.034-6.663l-6.447-3.869h-0.266v-0.161v-3.868h6.713v4.029h11.034v-4.029V53.19v-1.182h-11.034H365.549L365.549,52.008z
		 M404.167,83.441v-4.245v-4.675V63.936v-4.029h3.723V53.19v-1.182h-3.723v-5.212v-4.459h-11.033v4.459v5.212h-4.52v1.182v6.717
		h4.52v4.029v10.585v4.675v4.245v8.167h11.033h3.723h3.988v-8.167h-3.988H404.167L404.167,83.441z M428.228,51.256h-11.034v8.221
		v3.654v1.988v8.974v2.096v1.772v4.46v8.651h11.034h5.782h11.101V82.42H434.01h-5.782v-3.331l1.794-1.129l3.988-2.633l1.861-1.235
		l9.239-5.964v-3.009V63.13v-3.654v-8.221H434.01H428.228L428.228,51.256z M434.01,65.172l-5.782,3.762v-3.815V63.13v-3.654h5.782
		v3.654v1.988h0.066L434.01,65.172L434.01,65.172z M461.528,51.686h-11.1V51.9v8.221v13.434v8.973v8.92h11.1v-8.92v-8.973V60.121
		h11.565v-8.436H461.528z" />
	</g>
</svg>